Motion_mu04
version=1
nRows=16
nColumns=43
inDegrees=yes
endheader
time	pelvis_tilt	pelvis_list	pelvis_rotation	pelvis_tx	pelvis_ty	pelvis_tz	hip_flexion_r	hip_adduction_r	hip_rotation_r	knee_angle_r	ankle_angle_r	subtalar_angle_r	mtp_angle_r	hip_flexion_l	hip_adduction_l	hip_rotation_l	knee_angle_l	ankle_angle_l	subtalar_angle_l	mtp_angle_l	lumbar_extension	lumbar_bending	lumbar_rotation	neck_flexion	neck_lateral_bending	neck_rotation	arm_flex_r	arm_add_r	arm_rot_r	elbow_flex_r	pro_sup_r	wrist_flex_r	wrist_dev_r	hand_finger_flex_r	arm_flex_l	arm_add_l	arm_rot_l	elbow_flex_l	pro_sup_l	wrist_flex_l	wrist_dev_l	hand_finger_flex_l
      0.00250000	      1.50421380	      8.31407662	    -87.48478678	      0.00335122	      0.92699322	      0.83420499	     19.24682463	    -11.02916931	     -8.39368810	    -60.67837706	      2.48447050	    -14.96753654	      1.66937270	     12.05326797	     -6.10658305	     -1.55147160	    -50.70329870	     -0.07148039	     11.13519339	     -0.96685889	      6.64727354	      0.22869809	     -2.17799095	     20.74640991	     -5.34801584	      3.78256242	    -39.30625152	   -157.73594741	   -139.91377079	     43.42876526	    131.44477565	     21.50378449	    -13.52058679	     72.48321272	    -34.39982891	    207.66662426	   -122.12433969	     41.34869565	    108.71398174	     17.92043474	      6.01303255	     90.00021046
      0.00500000	      1.50863486	      8.12792610	    -87.48267130	      0.00344988	      0.92649753	      0.83698184	     19.33704984	    -11.09097341	     -8.45024583	    -61.30019560	      2.58881745	    -15.02421401	      1.68699016	     12.11725724	     -6.17505984	     -1.48522730	    -51.35846143	     -0.12244303	     11.09723157	     -0.98618645	      6.64347864	      0.22439659	     -2.14629647	     20.35571892	     -5.31578086	      3.83786253	    -39.34441812	   -157.63962309	   -139.92160015	     43.59729907	    131.29817996	     21.66814485	    -13.35058534	     72.48641027	    -34.45681437	    207.68629838	   -122.12778838	     41.42023509	    108.72919667	     17.83648348	      6.04592781	     90.00021046
      0.00750000	      1.55412125	      8.23702859	    -87.41501905	      0.00364544	      0.92562422	      0.83968569	     19.66474504	    -11.18221865	     -8.48251728	    -61.81081202	      2.94159213	    -15.12231332	      1.73725706	     12.59464567	     -6.08730232	     -1.23343263	    -52.15790605	     -0.20238392	     10.64553517	     -1.09812028	      7.00671081	      0.10755113	     -2.14360310	     19.88171864	     -5.14168479	      3.88858312	    -39.39619986	   -157.42368473	   -139.64498530	     43.73923526	    130.35024142	     22.46384048	    -12.40506878	     72.41862885	    -34.51733494	    207.50805080	   -121.87047352	     41.24457354	    108.79740447	     17.48274681	      6.24799012	     90.00021046
      0.01000000	      1.53539411	      8.02885672	    -87.43674080	      0.00377127	      0.92519110	      0.84256590	     19.75381245	    -11.22317421	     -8.54212421	    -62.46681879	      2.97745599	    -15.16543835	      1.74646541	     12.52719873	     -6.16178514	     -1.18468440	    -52.61711283	     -0.21234708	     10.56196125	     -1.11340754	      6.96271883	      0.15477524	     -2.07444306	     19.80043534	     -5.17671988	      3.88790531	    -39.41712631	   -157.31399592	   -139.65333768	     44.00264584	    130.18028081	     22.51511476	    -12.31804954	     72.39306567	    -34.55849383	    207.58307544	   -121.83085214	     41.41626278	    108.75609926	     17.47150253	      6.24019115	     90.00021046
      0.01250000	      1.55715495	      7.99896647	    -87.44290993	      0.00388781	      0.92441776	      0.84530307	     20.04741466	    -11.28803091	     -8.55668121	    -63.12690885	      3.18596775	    -15.19240297	      1.78413618	     12.74245034	     -6.07933710	     -0.99412651	    -53.26336156	     -0.08839048	      9.55823194	     -1.31760742	      7.07009254	      0.08631787	     -2.00382362	     19.74259719	     -5.12920223	      3.69489193	    -39.19572043	   -156.97793617	   -138.94156152	     44.17880846	    128.50790168	     23.07304292	    -11.04923878	     71.99166380	    -34.34600053	    207.53917084	   -121.19574295	     41.46234347	    108.33101764	     17.21641268	      6.38549537	     90.00021046
      0.01500000	      1.57507582	      7.75592738	    -87.44316465	      0.00402366	      0.92396363	      0.84823088	     20.05954910	    -11.33916972	     -8.55987235	    -63.69972697	      3.23106292	    -15.23339548	      1.79334126	     12.73009502	     -6.13694241	     -0.98137357	    -53.90104607	     -0.07814419	      9.51942061	     -1.33173180	      6.98258005	      0.08156428	     -1.96542943	     19.56275229	     -5.16273203	      3.70656283	    -39.20332096	   -156.87730370	   -138.92666884	     44.34278136	    128.42075755	     23.06502874	    -10.99933022	     71.95514922	    -34.35064947	    207.61627224	   -121.16895971	     41.58058285	    108.26334133	     17.21174967	      6.38215326	     90.00021046
      0.01750000	      1.57398354	      7.54015744	    -87.45625493	      0.00412833	      0.92344455	      0.85115672	     20.11982220	    -11.36438819	     -8.57225020	    -64.30320912	      3.31733987	    -15.27666402	      1.80766508	     12.73306495	     -6.19533030	     -0.93844274	    -54.52407967	      0.02130818	      9.41988826	     -1.33936657	      6.91520327	      0.08334037	     -1.93087896	     19.37328603	     -5.18395962	      3.69154958	    -39.18437630	   -156.75096937	   -138.83032169	     44.48610257	    128.30716649	     23.07331029	    -10.93994052	     71.91454997	    -34.28613753	    207.67932458	   -121.02730526	     41.71753447	    108.18260815	     17.21112906	      6.37800989	     90.00021046
      0.02000000	      1.56687064	      7.33619954	    -87.45874338	      0.00430137	      0.92288722	      0.85409452	     20.19605587	    -11.38336948	     -8.57448297	    -64.92601911	      3.42921794	    -15.30822559	      1.82532260	     12.75430177	     -6.24649618	     -0.89100184	    -55.16382870	      0.20906299	      9.27267283	     -1.33996506	      6.85359723	      0.09618908	     -1.89094512	     19.18519932	     -5.19089761	      3.64942135	    -39.13353301	   -156.60648032	   -138.68616528	     44.64343688	    128.16160947	     23.08564499	    -10.88297667	     71.87060779	    -34.19093976	    207.76136976	   -120.77949459	     41.88664648	    108.07181074	     17.20699524	      6.36729845	     90.00021046
      0.02250000	      1.60463222	      7.12081939	    -87.44684631	      0.00447756	      0.92226303	      0.85709617	     20.21140538	    -11.46045324	     -8.56232567	    -65.48682264	      3.82580066	    -14.89718075	      1.88187192	     12.70926703	     -6.19174566	     -0.82941376	    -55.77113437	      0.85508365	      8.57533516	     -1.56766011	      6.73780421	      0.05467945	     -1.92585003	     19.31419718	     -5.21182163	      3.41083775	    -38.90440858	   -156.42276650	   -138.03031596	     44.69018668	    126.69273056	     22.93387460	    -10.32372503	     71.40171283	    -33.70994297	    207.96648830	   -119.40298321	     41.94587023	    106.47849019	     16.60653622	      6.41664081	     90.00021046
      0.02500000	      1.58556108	      6.90233284	    -87.46087663	      0.00464822	      0.92175428	      0.86009155	     20.27924790	    -11.46230402	     -8.57338739	    -66.10268508	      3.89742249	    -14.92719754	      1.89268807	     12.66856669	     -6.25882789	     -0.78334708	    -56.31271614	      0.93041186	      8.55503107	     -1.57528219	      6.67080049	      0.09112979	     -1.85160624	     19.09010536	     -5.19104250	      3.42023299	    -38.86584044	   -156.30178520	   -137.95679389	     44.83483664	    126.71699092	     22.93058532	    -10.29417613	     71.39392867	    -33.68666099	    208.06983745	   -119.27392073	     42.14006728	    106.40927742	     16.60292196	      6.41953424	     90.00021046
      0.02750000	      1.58387323	      6.69498603	    -87.46398955	      0.00485208	      0.92124740	      0.86313223	     20.32614778	    -11.46694612	     -8.54935687	    -66.67678385	      3.97838662	    -14.93362382	      1.90458869	     12.65133818	     -6.30969659	     -0.76431348	    -56.88837473	      1.10079515	      8.51374684	     -1.57161148	      6.62124899	      0.10679173	     -1.79949108	     18.90668001	     -5.18446739	      3.40522371	    -38.83653702	   -156.17124990	   -137.85303287	     45.00521792	    126.69791187	     22.93223198	    -10.28207750	     71.38738150	    -33.64769670	    208.19325104	   -119.07018259	     42.35373421	    106.32119377	     16.59217029	      6.41314508	     90.00021046
      0.03000000	      1.58854375	      6.56068199	    -87.51699424	      0.00498671	      0.92054958	      0.86617097	     20.43999179	    -11.43366787	     -8.40454499	    -67.17374222	      4.24105443	    -14.71062114	      1.93490575	     12.68435536	     -6.32120035	     -0.76016701	    -57.51809668	      1.93504734	      8.40909147	     -1.56862309	      6.62739625	      0.11665828	     -1.76412968	     18.75629757	     -5.14162546	      3.26027719	    -38.64506481	   -156.04607007	   -137.33048808	     45.06342556	    126.45832828	     22.91842737	    -10.22005269	     71.33628126	    -33.30550546	    208.40890747	   -118.11873859	     42.62456548	    105.84756233	     16.38354087	      6.44241572	     90.00021046
      0.03250000	      1.58295071	      6.34312448	    -87.51470946	      0.00510997	      0.92005203	      0.86920841	     20.50823934	    -11.45115174	     -8.44725570	    -67.79603471	      4.32336002	    -14.68226331	      1.94736994	     12.61672037	     -6.38525040	     -0.73411224	    -57.99122773	      2.03247335	      8.41917015	     -1.57817878	      6.54698047	      0.12212699	     -1.73218507	     18.64584987	     -5.19001500	      3.26843528	    -38.62680135	   -155.90300063	   -137.34912748	     45.26167211	    126.31177378	     22.90171583	    -10.23518293	     71.32812537	    -33.23120744	    208.52591960	   -118.00276614	     42.83611793	    105.66915026	     16.32080885	      6.41973652	     90.00021046
      0.03500000	      1.61796130	      6.05194807	    -87.52370863	      0.00522486	      0.91945239	      0.87239067	     20.41510541	    -11.53747960	     -8.43183460	    -68.35112194	      4.93637418	    -13.73132139	      2.00858984	     12.45695044	     -6.43125656	     -0.75190635	    -58.56909461	      2.91538392	      8.84159597	     -1.81536333	      6.34036171	      0.10407733	     -1.81502695	     18.83023441	     -5.28116451	      3.25986061	    -38.35352591	   -155.81434712	   -136.73866028	     45.22386514	    124.91473829	     22.60076020	    -10.01269100	     71.17452764	    -32.64259695	    208.82731627	   -116.43696249	     42.95045506	    103.55092698	     15.22973162	      6.53078789	     90.00021046
      0.03750000	      1.62300814	      5.85823098	    -87.52366572	      0.00542416	      0.91896082	      0.87558266	     20.47086702	    -11.54682991	     -8.41166904	    -68.91060744	      5.00558640	    -13.76144827	      2.01782896	     12.39050275	     -6.45906860	     -0.71589247	    -59.01787744	      2.98461839	      8.82906741	     -1.82202188	      6.32484563	      0.11789394	     -1.79436861	     18.65223508	     -5.23769609	      3.26429687	    -38.33575572	   -155.71492201	   -136.64279991	     45.39536189	    124.92549527	     22.60567519	     -9.99635686	     71.18081037	    -32.64641590	    208.95667336	   -116.35701691	     43.15675514	    103.48624705	     15.22682782	      6.52948315	     90.00021046
      0.04000000	      1.66174920	      5.76477110	    -87.58264893	      0.00550743	      0.91820343	      0.87866764	     20.65128325	    -11.53534041	     -8.27672891	    -69.43407808	      5.27412717	    -13.61328486	      2.05293688	     12.44531463	     -6.43716922	     -0.69163235	    -59.57983120	      3.67089159	      8.83482445	     -1.84147738	      6.37183211	      0.08144899	     -1.73537740	     18.45639683	     -5.16936949	      3.23701399	    -38.11760872	   -155.55442322	   -136.14060075	     45.48696904	    124.76531162	     22.61958803	     -9.93580788	     71.18120778	    -32.42385752	    209.13808984	   -115.81813840	     43.45658606	    103.15080354	     15.07161271	      6.61197550	     90.00021046
